# xmcd
#
# Track frame offsets: 
#        150
#        13672
#        27752
#        41708
#        55818
#        69738
#        83637
#        100265
#        119600
#        141663
#        160540
#        179487
#        201875
#        219428
#        241646
#        261154
#        283002
#        301602
#        318812
#        338554
#
# Disc length: 4785 seconds
#
# Revision: 0
# Processed by: cddbd v1.5.2PL0 Copyright (c) Steve Scherf et al.
# Submitted via: ExactAudioCopyFreeDBPlugin 1.0
#
DISCID=1512af14
DTITLE=Leadbelly - Complete Recordings Vol 3
DYEAR=2015
DGENRE=Blues
TTITLE0=Daddy I’m Coming Back To You – [16806-3] {5th February 1935}
TTITLE1=My Friend Blind Lemon – [16807] {5th February 1935}
TTITLE2=Mr. Tom Hughes Town – [16808] {5th February 1935}
TTITLE3=Shorty George – [16814-1] {5th February 1935}
TTITLE4=Shorty George – [18814-2] {5th February 1935}
TTITLE5=Matchbox Blues – [16815] {5th February 1935}
TTITLE6=Salty Dog – [45-B] {13th February 1935}
TTITLE7=Angola Blues – [51-A] {13th February 1935}
TTITLE8=Roberta – [51-B] {13th February 1935}
TTITLE9=Careless Love – [52-A] {13th February 1935}
TTITLE10=C. C. Rider – 52-B] {13th February 1935}
TTITLE11=Governor Pat Neff – [53-A] {13th February 1935}
TTITLE12=Thirty Days In The Workhouse – [53-B] {13th February 1935}
TTITLE13=Ella Speed – [54-A] {13th February 1935}
TTITLE14=Ella Speed – [54-B] {13th February 1935}
TTITLE15=Frankie and Albert – [127-A] {13th February 1935}
TTITLE16=Frankie and Albert – [127-B] {13th February 1935}
TTITLE17=Which Way Do The River Run – [128-A] {13th February 1935}
TTITLE18=Got Up This Mornin’ So Doggone Soon – [128-B] {13th February 
TTITLE18=1935}
TTITLE19=Fort Worth and Dallas Blues – [130-A] {13th February 1935}
EXTD=
EXTT0=
EXTT1=
EXTT2=
EXTT3=
EXTT4=
EXTT5=
EXTT6=
EXTT7=
EXTT8=
EXTT9=
EXTT10=
EXTT11=
EXTT12=
EXTT13=
EXTT14=
EXTT15=
EXTT16=
EXTT17=
EXTT18=
EXTT19=
PLAYORDER=
